<svg xmlns="http://www.w3.org/2000/svg" width="32" height="32" enable-background="new 0 0 32 32" viewBox="0 0 32 32"><circle cx="16" cy="16" r="14.5" fill="#FFF"/><path fill="#1DE9B6" d="M30.5,16c0-1.339-0.196-2.631-0.536-3.862C27.83,6.787,22.612,3,16.5,3C8.492,3,2,9.492,2,17.5
			c0,1.339,0.196,2.631,0.536,3.862C4.67,26.713,9.888,30.5,16,30.5C24.008,30.5,30.5,24.008,30.5,16z"/><path fill="#455A64" d="M15.737,31C7.474,31,1,24.411,1,16c0-3.629,1.238-7.111,3.485-9.804c0.177-0.212,0.492-0.241,0.704-0.063
			C5.401,6.31,5.43,6.625,5.253,6.837C3.155,9.35,2,12.604,2,16c0,7.851,6.034,14,13.737,14C23.602,30,30,23.72,30,16
			S23.602,2,15.737,2c-2.441,0-4.812,0.62-6.857,1.791C8.642,3.928,8.335,3.846,8.198,3.606C8.06,3.366,8.143,3.061,8.383,2.924
			C10.579,1.665,13.122,1,15.737,1C24.153,1,31,7.729,31,16S24.153,31,15.737,31z"/><path fill="#455A64" d="M7.543,4.552c0,0.275-0.225,0.5-0.5,0.5l0,0c-0.275,0-0.5-0.225-0.5-0.5l0,0
									c0-0.275,0.225-0.5,0.5-0.5l0,0C7.318,4.052,7.543,4.276,7.543,4.552L7.543,4.552z"/><g><path fill="#FFF" d="M26.44 14.042c.363-.652.145-1.522-.507-1.885-5.365-3.19-13.848-3.48-18.995-1.958-.652.217-1.087.942-.87 1.667.218.652.942 1.087 1.667.87 4.423-1.377 12.18-1.087 16.82 1.667C25.208 14.768 26.078 14.55 26.44 14.042zM8.243 19.625c-.435.145-.798.58-.653 1.087.145.435.58.797 1.088.653 5.075-1.16 9.352-.725 12.76 1.377.435.29.942.145 1.232-.29.218-.435.145-1.015-.362-1.232C18.538 18.9 13.752 18.393 8.243 19.625zM24.41 18.465c.362-.507.145-1.232-.29-1.45-4.495-2.755-11.02-3.553-16.313-1.958-.58.145-.87.797-.725 1.377s.797.87 1.377.725c4.567-1.45 10.513-.725 14.428 1.667C23.395 19.19 24.047 18.973 24.41 18.465z"/></g><g><path fill="#455A64" d="M25.275 15.084c-.333 0-.667-.078-.963-.242-4.461-2.649-12.092-2.979-16.429-1.627-.948.285-1.977-.249-2.29-1.189-.087-.262.054-.545.316-.632.261-.087.545.054.632.316.127.378.566.695 1.049.549 4.518-1.406 12.389-1.151 17.22 1.716.421.234 1.008.076 1.223-.223.161-.224.473-.277.697-.116.225.16.277.473.116.697C26.501 14.816 25.891 15.084 25.275 15.084zM21.911 23.391c-.256 0-.516-.076-.751-.232-3.239-1.998-7.406-2.44-12.371-1.306C8 22.076 7.331 21.517 7.116 20.871c-.087-.262.054-.545.316-.632.264-.087.545.054.632.316.055.164.229.403.477.33 5.254-1.202 9.673-.717 13.159 1.433.106.07.198.089.287.067.099-.024.194-.099.267-.209.152-.23.462-.292.693-.139.23.153.292.463.139.693C22.799 23.16 22.36 23.391 21.911 23.391zM23.439 19.504c-.295 0-.587-.087-.842-.27-3.818-2.332-9.582-2.997-13.986-1.598-.919.23-1.808-.258-2.014-1.081-.067-.268.096-.539.364-.606.266-.067.539.095.606.364.077.308.471.438.771.361 4.63-1.473 10.733-.766 14.81 1.726.31.22.664.042.855-.227.161-.224.473-.277.697-.116.225.161.277.473.116.697C24.47 19.242 23.951 19.504 23.439 19.504z"/></g></svg>